<svg width="157" height="371" viewBox="0 0 157 371" fill="none" xmlns="http://www.w3.org/2000/svg">
<rect x="52.8867" y="242.509" width="55.8263" height="11.7529" fill="#A4C588"/>
<rect x="82.2715" y="242.509" width="26.444" height="11.7529" fill="#BB95BF"/>
<path d="M99.1657 242.509L100.635 246.916C100.635 246.916 105.043 260.873 102.838 254.261C100.634 247.65 90.3641 242.509 92.5677 242.509C96.2424 242.508 99.1657 242.509 99.1657 242.509Z" fill="#AD88B1"/>
<path d="M62.9661 242.509C62.9661 242.509 60.2702 245.354 59.5051 247.651C58.6886 250.101 55.8106 254.996 56.5578 254.262C56.9222 253.903 59.0723 248.961 62.4376 246.182C65.971 243.263 70.6928 242.509 69.5641 242.509C65.8893 242.509 62.9661 242.509 62.9661 242.509Z" fill="#92B376"/>
<rect x="118.998" y="277.768" width="69.0483" height="11.7529" transform="rotate(180 118.998 277.768)" fill="url(#paint0_linear_306_2478)"/>
<rect x="82.2715" y="277.768" width="32.3205" height="11.7529" transform="rotate(180 82.2715 277.768)" fill="#8E4E94"/>
<path d="M52.1572 266.015L51.3056 270.422C51.3056 270.422 49.2161 284.379 49.9539 277.768C50.2557 275.064 53.7208 271.649 55.8274 269.688C58.7664 266.749 71.0734 266.015 69.771 266.015C66.0963 266.014 52.1572 266.015 52.1572 266.015Z" fill="#804086"/>
<path d="M105.781 266.015C105.781 266.015 105.924 268.14 106.516 270.422C107.147 272.857 107.733 278.424 107.155 277.694C106.874 277.338 105.211 272.427 102.609 269.664C97.6959 267.484 83.6055 266.015 84.4782 266.015C87.3198 266.014 105.781 266.015 105.781 266.015Z" fill="#579223"/>
<rect width="55.8263" height="11.7529" transform="matrix(1 0 0 -1 53.043 128.227)" fill="url(#paint1_linear_306_2478)"/>
<rect width="26.444" height="11.7529" transform="matrix(1 0 0 -1 82.4258 128.227)" fill="#8E4E94"/>
<path d="M99.3181 128.227L100.787 123.82C100.787 123.82 105.195 109.863 102.991 116.474C100.787 123.085 90.5165 128.227 92.72 128.227C96.3947 128.227 99.3181 128.227 99.3181 128.227Z" fill="#804086"/>
<path d="M63.1204 128.226C63.1204 128.226 60.4244 125.381 59.6594 123.085C58.8429 120.634 55.9649 115.739 56.712 116.474C57.0765 116.832 59.2266 121.774 62.5919 124.554C66.1253 127.472 70.8471 128.226 69.7184 128.226C66.0436 128.227 63.1204 128.226 63.1204 128.226Z" fill="#579223"/>
<rect width="69.0483" height="11.7529" transform="matrix(-1 0 0 1 119.152 92.9678)" fill="#A4C588"/>
<rect width="32.3205" height="11.7529" transform="matrix(-1 0 0 1 82.4258 92.9678)" fill="#BB95BF"/>
<path d="M52.3115 104.721L51.4599 100.313C51.4599 100.313 49.3704 86.357 50.1082 92.968C50.41 95.6717 53.8751 99.087 55.9817 101.048C58.9207 103.986 71.2277 104.721 69.9253 104.721C66.2506 104.721 52.3115 104.721 52.3115 104.721Z" fill="#AD88B1"/>
<path d="M105.937 104.721C105.937 104.721 106.08 102.596 106.672 100.314C107.303 97.8782 107.889 92.3118 107.312 93.0418C107.03 93.3978 105.367 98.3088 102.765 101.071C97.8522 103.252 83.7617 104.721 84.6345 104.721C87.4761 104.721 105.937 104.721 105.937 104.721Z" fill="#92B376"/>
<path d="M8.81041 343.114C9.95387 350.043 16.0117 354.896 23.0338 354.896H36.3652C45.9706 354.896 53.221 345.964 51.8573 336.456C48.8325 315.365 46.0083 280.765 55.093 257.567C62.6146 238.361 83.4477 213.827 85.7389 211.161C85.8827 210.994 85.9987 210.866 86.1497 210.705C89.6344 206.998 136.428 156.671 147.647 115.431C154.904 88.7547 151.723 49.5372 149.364 29.6154C148.5 22.3218 142.258 16.9999 134.913 16.9999H121.243C111.987 16.9999 104.859 25.2987 105.84 34.5028C108.074 55.4538 110.276 90.7918 103.574 115.431C91.9187 158.273 63.9076 180.072 41.8709 210.923C19.8342 241.774 18.9836 237.231 11.0196 257.567C0.897643 283.413 5.5593 323.415 8.81041 343.114Z" fill="#8E4E94"/>
<path d="M8.81041 28.7817C9.95387 21.8533 16.0117 17 23.0338 17H36.3652C45.9706 17 53.221 25.9322 51.8573 35.4403C48.8325 56.5305 46.0083 91.1315 55.093 114.329C62.6146 133.535 83.4477 158.069 85.7389 160.735C85.8827 160.902 85.9987 161.03 86.1497 161.191C89.6344 164.898 136.428 215.225 147.647 256.465C154.904 283.141 151.723 322.359 149.364 342.281C148.5 349.574 142.258 354.896 134.913 354.896H121.243C111.987 354.896 104.859 346.597 105.84 337.393C108.074 316.442 110.276 281.104 103.574 256.465C91.9187 213.623 63.9076 191.824 41.8709 160.973C19.8342 130.122 18.9836 134.665 11.0196 114.329C0.897643 88.4829 5.5593 48.4806 8.81041 28.7817Z" fill="#689F38"/>
<path d="M10.8631 25.0801C14.5358 21.4073 18.2089 19.2036 19.678 19.2036C21.1471 19.2036 9.2123 50.9958 13.2219 69.1535C15.8207 80.9223 15.7319 87.4701 19.678 98.5357C26.0217 116.325 22.0373 110.838 35.9931 139.671C43.6394 155.468 49.5537 169.323 50.5395 171.649C50.6287 171.859 50.5785 172.097 50.4167 172.259V172.259C50.1716 172.504 49.7675 172.474 49.5648 172.193C47.1873 168.897 34.266 150.969 24.24 136.733C18.0323 127.918 10.8633 118.369 6.45568 100.739C2.04802 83.11 2.77775 74.2955 2.78196 66.9339C2.79262 48.3388 7.19035 28.7529 10.8631 25.0801Z" fill="url(#paint2_linear_306_2478)"/>
<path d="M148.639 346.29C145.119 350.109 141.538 352.461 140.07 352.52C138.603 352.58 149.233 320.328 144.487 302.349C141.412 290.696 141.234 284.15 136.84 273.254C129.777 255.738 133.982 261.058 118.864 232.817C110.581 217.345 104.107 203.742 103.027 201.458C102.93 201.251 102.97 201.012 103.125 200.844V200.844C103.36 200.589 103.765 200.602 103.979 200.875C106.489 204.071 120.129 221.458 130.727 235.275C137.288 243.829 144.84 253.079 149.962 270.514C155.084 287.949 154.713 296.786 155.009 304.142C155.756 322.722 152.159 342.471 148.639 346.29Z" fill="url(#paint3_linear_306_2478)"/>
<path d="M8.36122 344.821C11.8813 348.64 15.4617 350.992 16.9295 351.051C18.3974 351.111 7.76704 318.859 12.5126 300.88C15.5885 289.227 15.7663 282.681 20.1597 271.785C27.2225 254.269 23.018 259.589 38.1363 231.348C46.4194 215.875 52.8929 202.273 53.9726 199.989C54.0704 199.782 54.0299 199.543 53.8748 199.375V199.375C53.6399 199.12 53.2349 199.133 53.0209 199.406C50.5112 202.602 36.8706 219.989 26.2732 233.805C19.7118 242.36 12.1599 251.61 7.03813 269.045C1.91631 286.48 2.28652 295.317 1.99099 302.673C1.2445 321.253 4.8411 341.002 8.36122 344.821Z" fill="url(#paint4_linear_306_2478)"/>
<path d="M146.45 26.6843C143.446 23.074 140.472 20.9324 139.301 20.957C138.131 20.9817 148.311 52.5667 145.498 70.7875C143.674 82.5973 143.883 89.1422 140.971 100.272C136.289 118.163 139.349 112.611 128.833 141.671C122.515 159.134 116.062 173.2 116.06 173.206C116.06 173.206 116.06 173.206 116.059 173.206V173.206C116.057 173.209 116.05 173.219 116.052 173.216C119.068 168.984 130.779 152.319 138.138 138.537C142.9 129.62 148.413 119.952 151.555 102.253C154.696 84.5536 153.929 75.7532 153.771 68.3934C153.371 49.8026 149.454 30.2947 146.45 26.6843Z" fill="url(#paint5_linear_306_2478)"/>
<path d="M42.0501 29.9383C41.09 32.175 39.0405 29.4458 35.6854 28.0056C32.3303 26.5653 28.94 26.9596 29.9002 24.7228C30.8603 22.4861 34.3585 21.8404 37.7136 23.2806C41.0687 24.7208 43.0103 27.7015 42.0501 29.9383Z" fill="white"/>
<path d="M128.527 26.3301C129.285 28.6432 125.943 27.95 122.473 29.0871C119.004 30.2243 116.721 32.7612 115.963 30.4481C115.204 28.1351 117.402 25.3382 120.872 24.201C124.342 23.0638 127.769 24.0171 128.527 26.3301Z" fill="white"/>
<defs>
<linearGradient id="paint0_linear_306_2478" x1="153.522" y1="268.365" x2="153.522" y2="284.819" gradientUnits="userSpaceOnUse">
<stop stop-color="#689F38"/>
<stop offset="1" stop-color="#689F38"/>
</linearGradient>
<linearGradient id="paint1_linear_306_2478" x1="27.9132" y1="-9.40232" x2="27.9132" y2="7.05174" gradientUnits="userSpaceOnUse">
<stop stop-color="#689F38"/>
<stop offset="1" stop-color="#689F38"/>
</linearGradient>
<linearGradient id="paint2_linear_306_2478" x1="26.7093" y1="19.2036" x2="26.7093" y2="172.726" gradientUnits="userSpaceOnUse">
<stop stop-color="#446B22"/>
<stop offset="1" stop-color="#417B0E" stop-opacity="0"/>
</linearGradient>
<linearGradient id="paint3_linear_306_2478" x1="133.045" y1="352.807" x2="126.794" y2="199.412" gradientUnits="userSpaceOnUse">
<stop stop-color="#446B22"/>
<stop offset="1" stop-color="#417B0E" stop-opacity="0"/>
</linearGradient>
<linearGradient id="paint4_linear_306_2478" x1="23.9551" y1="351.338" x2="30.2061" y2="197.943" gradientUnits="userSpaceOnUse">
<stop stop-color="#7F4285"/>
<stop offset="1" stop-color="#8B5091" stop-opacity="0.75"/>
</linearGradient>
<linearGradient id="paint5_linear_306_2478" x1="133.698" y1="21.075" x2="136.928" y2="174.563" gradientUnits="userSpaceOnUse">
<stop stop-color="#903898"/>
<stop offset="1" stop-color="#723678" stop-opacity="0.75"/>
</linearGradient>
</defs>
</svg>
