<svg width="652" height="984" viewBox="0 0 652 984" fill="none" xmlns="http://www.w3.org/2000/svg">
<g filter="url(#filter0_d_779_4886)">
<ellipse cx="249.682" cy="190.216" rx="65.8714" ry="135.346" fill="white"/>
</g>
<g filter="url(#filter1_d_779_4886)">
<ellipse cx="355.803" cy="190.216" rx="65.8714" ry="135.346" fill="white"/>
</g>
<rect x="231.379" y="704.163" width="139.062" height="29.2639" fill="#A4C588"/>
<rect x="304.572" y="704.163" width="65.8714" height="29.2639" fill="#BB95BF"/>
<path d="M346.658 704.163L350.317 715.137C350.317 715.137 361.297 749.888 355.806 733.427C350.316 716.965 324.733 704.163 330.222 704.163C339.376 704.161 346.658 704.163 346.658 704.163Z" fill="#AD88B1"/>
<path d="M256.484 704.164C256.484 704.164 249.769 711.248 247.863 716.966C245.829 723.068 238.66 735.256 240.521 733.427C241.429 732.535 246.785 720.23 255.168 713.308C263.969 706.041 275.731 704.164 272.92 704.164C263.766 704.162 256.484 704.164 256.484 704.164Z" fill="#92B376"/>
<rect x="396.059" y="791.955" width="171.998" height="29.2639" transform="rotate(180 396.059 791.955)" fill="url(#paint0_linear_779_4886)"/>
<rect x="304.572" y="791.955" width="80.5095" height="29.2639" transform="rotate(180 304.572 791.955)" fill="#8E4E94"/>
<path d="M229.559 762.691L227.437 773.665C227.437 773.665 222.233 808.415 224.07 791.954C224.822 785.222 233.453 776.719 238.701 771.836C246.022 764.52 276.678 762.691 273.434 762.691C264.281 762.69 229.559 762.691 229.559 762.691Z" fill="#804086"/>
<path d="M363.138 762.691C363.138 762.691 363.494 767.983 364.968 773.665C366.541 779.728 368.001 793.588 366.561 791.771C365.859 790.884 361.718 778.656 355.236 771.778C342.998 766.349 307.899 762.691 310.073 762.691C317.151 762.69 363.138 762.691 363.138 762.691Z" fill="#579223"/>
<rect width="139.062" height="29.2639" transform="matrix(1 0 0 -1 231.766 419.607)" fill="url(#paint1_linear_779_4886)"/>
<rect width="65.8714" height="29.2639" transform="matrix(1 0 0 -1 304.961 419.607)" fill="#8E4E94"/>
<path d="M347.038 419.609L350.698 408.635C350.698 408.635 361.678 373.883 356.187 390.345C350.696 406.807 325.114 419.608 330.603 419.609C339.756 419.61 347.038 419.609 347.038 419.609Z" fill="#804086"/>
<path d="M256.871 419.607C256.871 419.607 250.155 412.522 248.25 406.804C246.216 400.702 239.047 388.514 240.908 390.343C241.816 391.236 247.171 403.541 255.554 410.462C264.356 417.73 276.118 419.607 273.306 419.607C264.153 419.608 256.871 419.607 256.871 419.607Z" fill="#579223"/>
<rect width="171.998" height="29.2639" transform="matrix(-1 0 0 1 396.445 331.816)" fill="#A4C588"/>
<rect width="80.5095" height="29.2639" transform="matrix(-1 0 0 1 304.961 331.816)" fill="#BB95BF"/>
<path d="M229.945 361.08L227.824 350.105C227.824 350.105 222.619 315.355 224.457 331.816C225.209 338.548 233.84 347.052 239.088 351.935C246.409 359.251 277.065 361.079 273.821 361.079C264.667 361.081 229.945 361.08 229.945 361.08Z" fill="#AD88B1"/>
<path d="M363.525 361.08C363.525 361.08 363.881 355.788 365.355 350.106C366.927 344.042 368.387 330.182 366.948 332C366.246 332.886 362.105 345.114 355.623 351.992C343.385 357.422 308.286 361.079 310.46 361.079C317.538 361.081 363.525 361.08 363.525 361.08Z" fill="#92B376"/>
<path d="M120.61 948.616C123.879 969.425 142.062 983.999 163.127 983.999H180.684C209.502 983.999 231.268 957.219 227.516 928.646C220.564 875.699 215.552 796.076 236.873 741.657C255.469 694.193 306.728 633.662 313.075 626.267C313.506 625.765 313.878 625.353 314.331 624.87C323.746 614.849 439.576 490.065 467.423 387.746C484.747 324.091 478.19 231.754 472.442 180.512C469.985 158.617 451.256 142.661 429.223 142.661H410.648C382.878 142.661 361.493 167.603 364.204 195.241C369.388 248.086 373.408 329.8 357.637 387.746C328.605 494.422 258.83 548.698 203.937 625.516C149.044 702.334 146.925 691.022 127.087 741.657C102.87 803.468 112.625 897.796 120.61 948.616Z" fill="#8E4E94"/>
<path d="M120.61 178.044C123.879 157.235 142.062 142.661 163.127 142.661H180.684C209.502 142.661 231.268 169.442 227.516 198.014C220.564 250.961 215.552 330.584 236.873 385.003C255.469 432.467 306.728 492.999 313.075 500.393C313.506 500.896 313.878 501.308 314.331 501.79C323.746 511.811 439.576 636.595 467.423 738.914C484.747 802.569 478.19 894.907 472.442 946.148C469.985 968.043 451.256 983.999 429.223 983.999H410.648C382.878 983.999 361.493 959.057 364.204 931.42C369.388 878.575 373.408 796.86 357.637 738.914C328.605 632.238 258.83 577.962 203.937 501.144C149.044 424.327 146.925 435.638 127.087 385.003C102.87 323.192 112.625 228.864 120.61 178.044Z" fill="#689F38"/>
<path d="M127.5 159.999C135.075 147.999 155.341 142.999 159 142.999C162.659 142.999 122.588 227.308 132.575 272.52C139.049 301.823 138.828 318.127 148.657 345.679C164.459 389.973 154.534 376.311 189.298 448.103C208.344 487.436 223.076 521.932 225.532 527.725C225.755 528.25 225.63 528.842 225.226 529.245C224.616 529.855 223.61 529.781 223.105 529.081C217.183 520.876 184.996 476.236 160.021 440.787C144.558 418.839 128.98 396.395 118 352.499C107.021 308.604 111.989 286.329 111.999 267.999C112.026 221.699 119.925 171.999 127.5 159.999Z" fill="url(#paint2_linear_779_4886)"/>
<path d="M469.895 962.571C465 969 452.208 977.935 448.551 978.084C444.895 978.233 471.375 897.928 459.554 853.161C451.892 824.145 451.449 807.846 440.505 780.716C422.912 737.103 433.385 750.35 395.726 680.032C381.261 653.022 369.011 628.302 362.053 613.976C358.558 606.779 361.437 598.167 368.506 594.419L371.151 593.017C377.684 589.554 385.749 591.364 390.062 597.37C401.724 613.608 424.43 646.212 440.505 675.499C453.423 699.036 465.5 728 473.191 773.894C480.881 819.787 477.265 842.185 478.001 860.5C479.86 906.763 474.789 956.142 469.895 962.571Z" fill="url(#paint3_linear_779_4886)"/>
<path d="M120.466 958.913C129.235 968.423 138.153 974.278 141.81 974.427C145.466 974.576 118.986 894.271 130.807 849.504C138.469 820.488 138.912 804.189 149.856 777.059C167.449 733.445 156.976 746.692 194.635 676.374C215.268 637.849 231.392 603.981 234.083 598.293C234.326 597.778 234.226 597.181 233.839 596.762C233.254 596.127 232.246 596.161 231.713 596.839C225.461 604.797 191.483 648.09 165.085 682.493C148.74 703.793 129.929 726.823 117.17 770.236C104.412 813.649 105.334 835.652 104.598 853.967C102.739 900.23 111.698 949.404 120.466 958.913Z" fill="url(#paint4_linear_779_4886)"/>
<path d="M462.067 155.5C454.584 146.511 439.917 143.438 437 143.5C434.084 143.561 469.077 231.22 462.068 276.588C457.526 305.994 458.046 322.29 450.792 350.002C439.13 394.551 446.753 380.725 420.559 453.084C404.819 496.564 388.746 531.589 388.739 531.603C388.739 531.603 388.739 531.603 388.739 531.604C388.733 531.612 388.715 531.637 388.721 531.629C396.234 521.091 425.404 479.595 443.737 445.279C455.599 423.077 465.174 401.07 473 356.999C480.826 312.929 479.668 288.817 479.001 270.5C475.5 174.5 469.551 164.49 462.067 155.5Z" fill="url(#paint5_linear_779_4886)"/>
<path d="M194.492 168.696C194.49 174.757 187.119 170.525 178.025 170.525C168.931 170.525 161.557 174.757 161.56 168.696C161.562 162.634 168.937 157.721 178.031 157.721C187.125 157.721 194.495 162.634 194.492 168.696Z" fill="white"/>
<path d="M406.066 168.274C406.069 174.335 413.439 170.103 422.533 170.103C431.627 170.103 439.002 174.335 438.999 168.274C438.996 162.213 431.622 157.299 422.528 157.299C413.434 157.299 406.064 162.213 406.066 168.274Z" fill="white"/>
<path d="M419.797 165.892C421.685 171.652 413.361 169.926 404.718 172.757C396.075 175.589 390.388 181.905 388.499 176.146C386.611 170.387 392.086 163.422 400.729 160.591C409.371 157.76 417.908 160.133 419.797 165.892Z" fill="white"/>
<path d="M412.528 259.718C403.983 294.059 374.06 325.494 370.443 325.494C374.06 327.379 419.852 284.836 423.506 239.599C427.161 194.362 416.096 142.662 417.089 142.662C418.082 142.662 423.314 216.366 412.528 259.718Z" fill="#83398A"/>
<path d="M187.468 237.769C189.298 268.862 223.244 314.587 222.233 314.587C221.223 314.587 181.979 276.178 181.979 243.256C181.979 206.892 182.798 168.268 183.808 168.268C184.819 168.268 181.979 208.505 187.468 237.769Z" fill="#588E2A"/>
<g filter="url(#filter2_i_779_4886)">
<ellipse cx="249.682" cy="190.216" rx="65.8714" ry="135.346" fill="white"/>
</g>
<path d="M313.053 190.216C313.053 227.296 305.733 260.742 294.012 284.826C282.209 309.078 266.379 323.062 249.682 323.062C232.985 323.062 217.155 309.078 205.352 284.826C193.631 260.742 186.311 227.296 186.311 190.216C186.311 153.136 193.631 119.689 205.352 95.606C217.155 71.3531 232.985 57.3701 249.682 57.3701C266.379 57.3701 282.209 71.3531 294.012 95.606C305.733 119.689 313.053 153.136 313.053 190.216Z" stroke="#707070" stroke-width="5"/>
<g filter="url(#filter3_i_779_4886)">
<ellipse cx="355.803" cy="190.216" rx="65.8714" ry="135.346" fill="white"/>
</g>
<path d="M419.174 190.216C419.174 227.296 411.854 260.742 400.133 284.826C388.33 309.078 372.5 323.062 355.803 323.062C339.106 323.062 323.276 309.078 311.473 284.826C299.752 260.742 292.432 227.296 292.432 190.216C292.432 153.136 299.752 119.689 311.473 95.606C323.276 71.3531 339.106 57.3701 355.803 57.3701C372.5 57.3701 388.33 71.3531 400.133 95.606C411.854 119.689 419.174 153.136 419.174 190.216Z" stroke="#707070" stroke-width="5"/>
<ellipse cx="348.486" cy="259.718" rx="36.5952" ry="36.5799" fill="#2C2C2C"/>
<ellipse cx="260.656" cy="259.718" rx="36.5952" ry="36.5799" fill="#2C2C2C"/>
<ellipse cx="249.682" cy="274.349" rx="10.9786" ry="10.974" fill="white"/>
<ellipse cx="341.166" cy="274.349" rx="10.9786" ry="10.974" fill="white"/>
<path d="M371.797 244.302C371.797 250.795 366.579 256.06 360.143 256.06C353.706 256.06 348.488 250.795 348.488 244.302C348.488 237.808 363.029 223.138 369.465 223.138C372.089 223.138 374.511 224.013 376.459 225.489C381.121 225.489 371.797 240.456 371.797 244.302Z" fill="white"/>
<path d="M283.221 242.995C283.221 250.21 277.351 256.059 270.109 256.059C262.868 256.059 256.998 250.21 256.998 242.995C256.998 235.78 273.356 219.479 280.597 219.479C283.549 219.479 286.274 220.452 288.465 222.092C293.71 222.092 283.221 238.722 283.221 242.995Z" fill="white"/>
<path d="M178.176 88.2571C197.538 116.629 203.137 113.304 202.302 113.873C201.467 114.442 194.515 118.69 175.153 90.3184C155.792 61.9465 168.812 50.3621 169.647 49.7929C170.482 49.2237 158.815 59.8851 178.176 88.2571Z" fill="#2C2C2C"/>
<path d="M192.65 66.9274C209.398 91.4691 214.241 88.5927 213.519 89.0851C212.797 89.5774 206.783 93.2521 190.035 68.7105C173.287 44.1688 184.55 34.1484 185.272 33.656C185.994 33.1636 175.902 42.3858 192.65 66.9274Z" fill="#2C2C2C"/>
<path d="M205.479 53.334C219.427 73.7727 223.46 71.3772 222.859 71.7872C222.257 72.1973 217.249 75.2576 203.301 54.8189C189.353 34.3802 198.733 26.0351 199.334 25.625C199.936 25.215 191.531 32.8953 205.479 53.334Z" fill="#2C2C2C"/>
<path d="M431.574 88.2571C412.212 116.629 406.613 113.304 407.448 113.873C408.283 114.442 415.235 118.69 434.597 90.3184C453.958 61.9465 440.938 50.3621 440.103 49.7929C439.268 49.2237 450.935 59.8851 431.574 88.2571Z" fill="#2C2C2C"/>
<path d="M417.1 66.9274C400.352 91.4691 395.509 88.5927 396.231 89.0851C396.953 89.5774 402.967 93.2521 419.715 68.7105C436.463 44.1688 425.2 34.1484 424.478 33.656C423.756 33.1636 433.848 42.3858 417.1 66.9274Z" fill="#2C2C2C"/>
<path d="M404.271 53.334C390.323 73.7727 386.29 71.3772 386.891 71.7872C387.493 72.1973 392.501 75.2576 406.449 54.8189C420.397 34.3802 411.017 26.0351 410.416 25.625C409.814 25.215 418.219 32.8953 404.271 53.334Z" fill="#2C2C2C"/>
<path d="M286.276 21.948C286.276 22.9581 260.964 9.14498 209.426 9.14498C157.888 9.14498 143.555 28.4451 143.555 27.4349C143.555 26.4248 174.356 0 225.894 0C277.432 0 286.276 20.9378 286.276 21.948Z" fill="#2C2C2C"/>
<path d="M322.87 21.948C322.87 22.9581 348.182 9.14498 399.72 9.14498C451.258 9.14498 465.592 28.4451 465.592 27.4349C465.592 26.4248 434.791 0 383.253 0C331.715 0 322.87 20.9378 322.87 21.948Z" fill="#2C2C2C"/>
<path d="M185.636 164.996C185.636 169.036 184.816 168.654 183.805 168.654C182.795 168.654 183.803 169.036 183.803 164.996C183.803 160.955 184.622 155.851 185.633 155.851C186.643 155.851 185.636 160.955 185.636 164.996Z" fill="#D9D9D9"/>
<path d="M56.881 702.953C56.881 702.953 94.8411 642.946 127.352 611.864C161.708 579.019 234.151 540.315 234.151 540.315L252.564 561.814C252.564 561.814 188.156 598.829 154.083 631.297C122.061 661.809 83.6114 719.956 83.6114 719.956L56.881 702.953Z" fill="#8E4E94"/>
<path d="M56.8673 702.963C56.8673 702.963 94.8274 642.956 127.338 611.874C161.695 579.029 234.137 540.325 234.137 540.325C234.137 540.325 164.419 583.88 130.776 618.748C100.065 650.578 56.8819 702.953 56.8819 702.953L56.8673 702.963Z" fill="url(#paint6_linear_779_4886)"/>
<path d="M384.856 539.071L474.531 580.155L520.614 510.437L551.751 530.356C551.751 530.356 509.405 605.054 490.723 617.504C472.04 629.953 366.174 562.725 366.174 562.725L384.856 539.071Z" fill="#689F38"/>
<path d="M484.494 613.768L516.877 578.909L551.75 530.355C551.75 530.355 534.94 560.344 518.122 585.134C507.004 601.522 499.44 611.278 490.721 617.503C482.003 623.728 455.848 611.278 455.848 611.278L484.494 613.768Z" fill="url(#paint7_linear_779_4886)"/>
<path d="M384.855 539.07L474.531 580.154C474.531 580.154 449.621 571.439 433.429 565.215C417.238 558.99 384.855 539.07 384.855 539.07Z" fill="url(#paint8_linear_779_4886)"/>
<g filter="url(#filter4_i_779_4886)">
<path d="M71.353 665.875C70.1719 657.149 76.8556 654.836 84.6964 654.376C95.7876 653.729 117.21 665.824 122.852 673.817C128.012 681.195 128.41 688.771 122.629 692.825" fill="white"/>
<path d="M71.353 665.875C70.1719 657.149 76.8556 654.836 84.6964 654.376C95.7876 653.729 117.21 665.824 122.852 673.817C128.012 681.195 128.41 688.771 122.629 692.825" stroke="#B4B4B4" stroke-width="5" stroke-linecap="round" stroke-linejoin="round"/>
<path d="M125.947 750.244C134.695 732.961 130.248 697.912 113.414 682.719C104.673 674.98 82.2147 663.91 71.5017 666.338C53.1903 670.408 40.3973 680.533 30.0903 695.382C26.4458 700.644 23.2892 707.061 21.2373 712.618C12.6711 735.248 12.4263 754.772 28.6574 758.834C25.3032 778.987 55.2086 786.933 61.4301 773.14C68.6587 795.475 96.0261 789.615 95.9159 766.672C100.177 765.569 116.859 768.184 125.947 750.244Z" fill="white" stroke="#B4B4B4" stroke-width="5" stroke-linecap="round" stroke-linejoin="round"/>
<mask id="path-57-inside-1_779_4886" fill="white">
<path d="M60.8668 770.843C62.5858 754.899 65.4288 750.464 66.9826 746.539C65.6382 756.548 65.0311 759.048 64.3942 769.785C64.2879 771.612 65.3757 781.322 63.9433 778.881C62.511 776.441 61.6883 773.644 61.6883 773.644C61.6883 773.644 58.0058 777.855 57.5218 777.728C57.0377 777.602 60.5741 771.947 60.8668 770.843Z"/>
</mask>
<path d="M60.8668 770.843C62.5858 754.899 65.4288 750.464 66.9826 746.539C65.6382 756.548 65.0311 759.048 64.3942 769.785C64.2879 771.612 65.3757 781.322 63.9433 778.881C62.511 776.441 61.6883 773.644 61.6883 773.644C61.6883 773.644 58.0058 777.855 57.5218 777.728C57.0377 777.602 60.5741 771.947 60.8668 770.843Z" fill="#DBDBDB"/>
<path d="M60.8668 770.843L65.7004 772.124L65.7979 771.756L65.8387 771.378L60.8668 770.843ZM66.9826 746.539L71.9388 747.203L62.3328 744.7L66.9826 746.539ZM64.3942 769.785L59.4023 769.49L59.402 769.496L64.3942 769.785ZM61.6883 773.644L66.486 772.232L63.9177 763.5L57.9239 770.354L61.6883 773.644ZM65.8387 771.378C66.672 763.648 67.7591 758.884 68.7609 755.67C69.8186 752.277 70.6446 750.873 71.6324 748.377L62.3328 744.7C61.7668 746.13 60.3944 748.906 59.2125 752.698C57.9746 756.669 56.7806 762.094 55.8949 770.309L65.8387 771.378ZM62.0264 745.874C60.6984 755.762 60.0533 758.515 59.4023 769.49L69.3861 770.08C70.0089 759.58 70.5781 757.334 71.9388 747.203L62.0264 745.874ZM59.402 769.496C59.3542 770.317 59.4321 771.633 59.4878 772.607C59.5548 773.777 59.631 775.004 59.6682 776.104C59.6867 776.649 59.6935 777.111 59.6874 777.475C59.6805 777.888 59.6588 777.994 59.6729 777.911C59.676 777.894 59.7277 777.556 59.9266 777.102C60.0262 776.874 60.7446 775.199 62.8026 774.519C65.2564 773.709 67.0395 775.052 67.4953 775.455C68.0135 775.913 68.2512 776.341 68.2566 776.351L59.6301 781.412C59.8145 781.726 60.2116 782.365 60.8712 782.948C61.4686 783.476 63.3753 784.859 65.9366 784.013C68.1022 783.298 68.912 781.512 69.0889 781.108C69.3651 780.477 69.4797 779.898 69.5333 779.582C69.7332 778.404 69.7008 776.854 69.6639 775.763C69.6215 774.513 69.5352 773.122 69.4728 772.033C69.4405 771.469 69.4148 770.991 69.4 770.607C69.3832 770.169 69.3887 770.035 69.3864 770.074L59.402 769.496ZM58.788 772.892C60.2484 773.273 61.3357 774.258 61.9268 775.397C62.4209 776.349 62.4719 777.205 62.4766 777.577C62.486 778.318 62.313 778.848 62.3022 778.884C62.2388 779.094 62.2009 779.141 62.3175 778.895C62.5128 778.483 62.8488 777.855 63.2871 777.056C63.6905 776.321 64.1827 775.438 64.5689 774.711C64.765 774.342 64.9653 773.954 65.1361 773.595C65.2609 773.332 65.5334 772.753 65.7004 772.124L56.0333 769.563C56.1271 769.209 56.225 769.048 56.1023 769.306C56.0255 769.468 55.9053 769.704 55.7363 770.023C55.3922 770.67 54.9756 771.416 54.5188 772.248C54.097 773.017 53.6213 773.895 53.2805 774.614C53.1291 774.933 52.8921 775.451 52.7268 775.999C52.665 776.204 52.4654 776.87 52.4761 777.707C52.4814 778.129 52.54 779.023 53.049 780.004C53.6552 781.172 54.7648 782.175 56.2555 782.565L58.788 772.892ZM68.2566 776.351C67.7313 775.456 67.2801 774.424 66.9488 773.559C66.788 773.139 66.6659 772.786 66.5864 772.546C66.5468 772.427 66.5183 772.337 66.5014 772.282C66.4929 772.255 66.4873 772.237 66.4847 772.228C66.4834 772.224 66.4829 772.222 66.4831 772.223C66.4832 772.223 66.4835 772.224 66.484 772.226C66.4842 772.226 66.4845 772.227 66.4848 772.229C66.485 772.229 66.4852 772.23 66.4854 772.23C66.4855 772.231 66.4856 772.231 66.4857 772.231C66.4858 772.232 66.486 772.232 61.6883 773.644C56.8907 775.055 56.8909 775.056 56.891 775.056C56.8911 775.056 56.8913 775.057 56.8914 775.057C56.8916 775.058 56.8919 775.059 56.8922 775.06C56.8927 775.062 56.8933 775.064 56.8939 775.066C56.8952 775.07 56.8967 775.075 56.8984 775.081C56.9018 775.092 56.9061 775.107 56.9111 775.123C56.9213 775.157 56.9348 775.201 56.9516 775.255C56.9852 775.363 57.0322 775.511 57.0921 775.692C57.2116 776.052 57.3847 776.551 57.6086 777.136C58.0467 778.28 58.723 779.867 59.6301 781.412L68.2566 776.351ZM61.6883 773.644C57.9239 770.354 57.924 770.354 57.9241 770.354C57.9241 770.354 57.9242 770.353 57.9242 770.353C57.9243 770.353 57.9243 770.353 57.9242 770.353C57.9241 770.354 57.9238 770.354 57.9233 770.355C57.9222 770.356 57.9203 770.358 57.9175 770.361C57.912 770.367 57.9032 770.377 57.8912 770.391C57.8672 770.418 57.8308 770.46 57.7835 770.513C57.6889 770.62 57.5516 770.775 57.3849 770.96C57.0487 771.335 56.6045 771.822 56.1541 772.299C55.6866 772.793 55.2817 773.2 55.007 773.451C54.8531 773.591 54.8547 773.576 54.97 773.496C55.0151 773.464 55.2478 773.3 55.6118 773.138C55.7982 773.055 56.1383 772.918 56.5913 772.827C57.0204 772.74 57.823 772.639 58.788 772.892L56.2555 782.565C58.0483 783.034 59.4683 782.365 59.6849 782.269C60.156 782.059 60.5174 781.817 60.7096 781.683C61.1189 781.396 61.4877 781.073 61.747 780.836C62.2989 780.333 62.9054 779.711 63.4191 779.168C63.9498 778.608 64.4565 778.051 64.8259 777.639C65.0119 777.432 65.1661 777.259 65.2748 777.136C65.3292 777.074 65.3724 777.025 65.4026 776.991C65.4177 776.974 65.4295 776.96 65.438 776.951C65.4422 776.946 65.4456 776.942 65.4481 776.939C65.4493 776.938 65.4503 776.937 65.4511 776.936C65.4515 776.935 65.4518 776.935 65.4521 776.934C65.4523 776.934 65.4524 776.934 65.4525 776.934C65.4527 776.934 65.4528 776.934 61.6883 773.644Z" fill="#B4B4B4" mask="url(#path-57-inside-1_779_4886)"/>
<mask id="path-59-inside-2_779_4886" fill="white">
<path d="M28.8145 758.883C30.8213 749.688 31.5792 739.499 36.4221 733.286C35.2442 738.326 30.7402 751.329 28.8145 758.883Z"/>
</mask>
<path d="M28.8145 758.883C30.8213 749.688 31.5792 739.499 36.4221 733.286C35.2442 738.326 30.7402 751.329 28.8145 758.883Z" fill="#DBDBDB"/>
<path d="M28.8145 758.883L23.9288 757.818L33.6601 760.117L28.8145 758.883ZM36.4221 733.286L41.2916 734.422L32.4779 730.214L36.4221 733.286ZM33.7001 759.947C34.2241 757.547 34.6648 755.089 35.0879 752.776C35.518 750.424 35.9326 748.206 36.4242 746.103C37.4267 741.814 38.6302 738.586 40.3663 736.358L32.4779 730.214C29.3712 734.199 27.7742 739.172 26.6854 743.829C26.1313 746.2 25.6774 748.641 25.2497 750.98C24.8149 753.357 24.4082 755.621 23.9288 757.818L33.7001 759.947ZM31.5526 732.149C31.0179 734.438 29.676 738.711 28.1274 743.647C26.6275 748.427 24.9726 753.712 23.9688 757.649L33.6601 760.117C34.582 756.501 36.142 751.507 37.6701 746.637C39.1493 741.923 40.6485 737.174 41.2916 734.422L31.5526 732.149Z" fill="#B4B4B4" mask="url(#path-59-inside-2_779_4886)"/>
<mask id="path-61-inside-3_779_4886" fill="white">
<path d="M94.4702 772.869C98.3959 752.018 110.364 741.419 118.395 733.51C108.231 740.886 95.3392 758.241 95.6667 762.323L94.4702 772.869Z"/>
</mask>
<path d="M94.4702 772.869C98.3959 752.018 110.364 741.419 118.395 733.51C108.231 740.886 95.3392 758.241 95.6667 762.323L94.4702 772.869Z" fill="#DBDBDB"/>
<path d="M94.4702 772.869L89.5014 772.307L99.3846 773.793L94.4702 772.869ZM118.395 733.51L121.904 737.071L115.458 729.464L118.395 733.51ZM95.6667 762.323L100.635 762.885L100.69 762.404L100.651 761.922L95.6667 762.323ZM99.3846 773.793C102.986 754.662 113.796 745.056 121.904 737.071L114.887 729.949C106.932 737.782 93.8054 749.374 89.5559 771.945L99.3846 773.793ZM115.458 729.464C109.833 733.547 103.733 740.143 99.1371 746.099C96.8173 749.106 94.7758 752.085 93.3067 754.66C92.5759 755.942 91.9319 757.218 91.4697 758.41C91.072 759.436 90.5466 761.037 90.682 762.724L100.651 761.922C100.705 762.589 100.511 762.754 100.795 762.021C101.015 761.454 101.404 760.647 101.994 759.612C103.168 757.555 104.923 754.969 107.056 752.205C111.365 746.619 116.793 740.849 121.332 737.555L115.458 729.464ZM90.6979 761.761L89.5014 772.307L99.439 773.431L100.635 762.885L90.6979 761.761Z" fill="#B4B4B4" mask="url(#path-61-inside-3_779_4886)"/>
</g>
<g filter="url(#filter5_i_779_4886)">
<path d="M553.403 546.255C554.415 555.384 547.387 557.628 539.199 557.91C527.616 558.306 505.581 545.153 499.899 536.675C494.705 528.851 494.48 520.942 500.611 516.859" fill="white"/>
<path d="M553.403 546.255C554.415 555.384 547.387 557.628 539.199 557.91C527.616 558.306 505.581 545.153 499.899 536.675C494.705 528.851 494.48 520.942 500.611 516.859" stroke="#B1B1B1" stroke-width="5" stroke-linecap="round" stroke-linejoin="round"/>
<path d="M556.748 530.348C557.194 539.213 550.805 541.756 543.478 542.441C533.113 543.407 514.092 531.664 509.442 523.67C505.195 516.289 505.39 508.576 511.07 504.283" fill="white"/>
<path d="M556.748 530.348C557.194 539.213 550.805 541.756 543.478 542.441C533.113 543.407 514.092 531.664 509.442 523.67C505.195 516.289 505.39 508.576 511.07 504.283" stroke="#DBDBDB" stroke-width="5" stroke-linecap="round" stroke-linejoin="round"/>
<path d="M498.594 456.902C489.036 474.703 492.789 511.364 509.961 527.632C518.88 535.922 542.021 548.032 553.254 545.77C572.451 541.987 586.047 531.751 597.169 516.526C601.103 511.131 604.556 504.519 606.836 498.776C614.912 477.636 604.783 458.248 600.263 450.395C606.295 436.972 615.168 421.546 624.381 407.456C638.161 386.381 603.963 377.31 591.256 397.185C585.308 406.489 579.242 413.568 566.449 434.651C568.394 420.975 570.29 400.92 573.787 388.085C579.559 366.908 545.97 365.501 539.458 391.539C535.025 409.271 534.47 423.596 530.324 440.526C525.853 441.569 508.523 438.423 498.594 456.902Z" fill="white" stroke="#B2B2B2" stroke-width="5" stroke-linecap="round" stroke-linejoin="round"/>
<path d="M568.396 421C565.028 437.385 562.704 458.536 562.997 462.93C564.848 452.559 565.041 449.883 567.827 439.014C568.303 437.165 569.867 428.717 571.308 426.369L566.705 434.442L568.396 421Z" fill="#DBDBDB"/>
<path d="M597.85 449.409C593.831 458.367 591.142 470.118 591.352 478.332C595.506 468.54 596.507 459.967 600.246 450.547C608.056 435.666 613.801 427.106 612.504 426.561C611.776 426.256 598.676 449.801 597.848 449.414C597.02 449.026 597.85 449.409 597.85 449.409Z" fill="#DBDBDB"/>
<path d="M530.119 440.42C525.499 462.065 514.049 464.701 505.474 472.747C516.26 465.311 530.361 456.211 532.889 441.016C535.417 425.821 534.785 418.621 534.785 418.621L530.119 440.42Z" fill="#DBDBDB"/>
</g>
<defs>
<filter id="filter0_d_779_4886" x="179.811" y="54.8701" width="139.742" height="278.691" filterUnits="userSpaceOnUse" color-interpolation-filters="sRGB">
<feFlood flood-opacity="0" result="BackgroundImageFix"/>
<feColorMatrix in="SourceAlpha" type="matrix" values="0 0 0 0 0 0 0 0 0 0 0 0 0 0 0 0 0 0 127 0" result="hardAlpha"/>
<feOffset dy="4"/>
<feGaussianBlur stdDeviation="2"/>
<feComposite in2="hardAlpha" operator="out"/>
<feColorMatrix type="matrix" values="0 0 0 0 0.520833 0 0 0 0 0.520833 0 0 0 0 0.520833 0 0 0 0.25 0"/>
<feBlend mode="normal" in2="BackgroundImageFix" result="effect1_dropShadow_779_4886"/>
<feBlend mode="normal" in="SourceGraphic" in2="effect1_dropShadow_779_4886" result="shape"/>
</filter>
<filter id="filter1_d_779_4886" x="285.932" y="54.8701" width="139.742" height="278.691" filterUnits="userSpaceOnUse" color-interpolation-filters="sRGB">
<feFlood flood-opacity="0" result="BackgroundImageFix"/>
<feColorMatrix in="SourceAlpha" type="matrix" values="0 0 0 0 0 0 0 0 0 0 0 0 0 0 0 0 0 0 127 0" result="hardAlpha"/>
<feOffset dy="4"/>
<feGaussianBlur stdDeviation="2"/>
<feComposite in2="hardAlpha" operator="out"/>
<feColorMatrix type="matrix" values="0 0 0 0 0.520833 0 0 0 0 0.520833 0 0 0 0 0.520833 0 0 0 0.25 0"/>
<feBlend mode="normal" in2="BackgroundImageFix" result="effect1_dropShadow_779_4886"/>
<feBlend mode="normal" in="SourceGraphic" in2="effect1_dropShadow_779_4886" result="shape"/>
</filter>
<filter id="filter2_i_779_4886" x="183.811" y="54.8701" width="131.742" height="274.691" filterUnits="userSpaceOnUse" color-interpolation-filters="sRGB">
<feFlood flood-opacity="0" result="BackgroundImageFix"/>
<feBlend mode="normal" in="SourceGraphic" in2="BackgroundImageFix" result="shape"/>
<feColorMatrix in="SourceAlpha" type="matrix" values="0 0 0 0 0 0 0 0 0 0 0 0 0 0 0 0 0 0 127 0" result="hardAlpha"/>
<feOffset dy="4"/>
<feGaussianBlur stdDeviation="4.5"/>
<feComposite in2="hardAlpha" operator="arithmetic" k2="-1" k3="1"/>
<feColorMatrix type="matrix" values="0 0 0 0 0.801406 0 0 0 0 0.883173 0 0 0 0 0.929167 0 0 0 0.42 0"/>
<feBlend mode="normal" in2="shape" result="effect1_innerShadow_779_4886"/>
</filter>
<filter id="filter3_i_779_4886" x="289.932" y="54.8701" width="131.742" height="274.691" filterUnits="userSpaceOnUse" color-interpolation-filters="sRGB">
<feFlood flood-opacity="0" result="BackgroundImageFix"/>
<feBlend mode="normal" in="SourceGraphic" in2="BackgroundImageFix" result="shape"/>
<feColorMatrix in="SourceAlpha" type="matrix" values="0 0 0 0 0 0 0 0 0 0 0 0 0 0 0 0 0 0 127 0" result="hardAlpha"/>
<feOffset dy="4"/>
<feGaussianBlur stdDeviation="4.5"/>
<feComposite in2="hardAlpha" operator="arithmetic" k2="-1" k3="1"/>
<feColorMatrix type="matrix" values="0 0 0 0 0.801406 0 0 0 0 0.883173 0 0 0 0 0.929167 0 0 0 0.42 0"/>
<feBlend mode="normal" in2="shape" result="effect1_innerShadow_779_4886"/>
</filter>
<filter id="filter4_i_779_4886" x="12.9512" y="651.852" width="119.875" height="140.847" filterUnits="userSpaceOnUse" color-interpolation-filters="sRGB">
<feFlood flood-opacity="0" result="BackgroundImageFix"/>
<feBlend mode="normal" in="SourceGraphic" in2="BackgroundImageFix" result="shape"/>
<feColorMatrix in="SourceAlpha" type="matrix" values="0 0 0 0 0 0 0 0 0 0 0 0 0 0 0 0 0 0 127 0" result="hardAlpha"/>
<feOffset dy="3"/>
<feGaussianBlur stdDeviation="4"/>
<feComposite in2="hardAlpha" operator="arithmetic" k2="-1" k3="1"/>
<feColorMatrix type="matrix" values="0 0 0 0 0.670833 0 0 0 0 0.670833 0 0 0 0 0.670833 0 0 0 0.25 0"/>
<feBlend mode="normal" in2="shape" result="effect1_innerShadow_779_4886"/>
</filter>
<filter id="filter5_i_779_4886" x="490.951" y="369.599" width="139.146" height="193.82" filterUnits="userSpaceOnUse" color-interpolation-filters="sRGB">
<feFlood flood-opacity="0" result="BackgroundImageFix"/>
<feBlend mode="normal" in="SourceGraphic" in2="BackgroundImageFix" result="shape"/>
<feColorMatrix in="SourceAlpha" type="matrix" values="0 0 0 0 0 0 0 0 0 0 0 0 0 0 0 0 0 0 127 0" result="hardAlpha"/>
<feOffset dy="3"/>
<feGaussianBlur stdDeviation="4"/>
<feComposite in2="hardAlpha" operator="arithmetic" k2="-1" k3="1"/>
<feColorMatrix type="matrix" values="0 0 0 0 0.670833 0 0 0 0 0.670833 0 0 0 0 0.670833 0 0 0 0.25 0"/>
<feBlend mode="normal" in2="shape" result="effect1_innerShadow_779_4886"/>
</filter>
<linearGradient id="paint0_linear_779_4886" x1="482.057" y1="768.544" x2="482.057" y2="809.513" gradientUnits="userSpaceOnUse">
<stop stop-color="#689F38"/>
<stop offset="1" stop-color="#689F38"/>
</linearGradient>
<linearGradient id="paint1_linear_779_4886" x1="69.5309" y1="-23.4111" x2="69.5309" y2="17.5584" gradientUnits="userSpaceOnUse">
<stop stop-color="#689F38"/>
<stop offset="1" stop-color="#689F38"/>
</linearGradient>
<linearGradient id="paint2_linear_779_4886" x1="166.172" y1="148.147" x2="166.172" y2="530.408" gradientUnits="userSpaceOnUse">
<stop stop-color="#446B22"/>
<stop offset="1" stop-color="#417B0E" stop-opacity="0"/>
</linearGradient>
<linearGradient id="paint3_linear_779_4886" x1="431.049" y1="978.798" x2="415.491" y2="596.854" gradientUnits="userSpaceOnUse">
<stop stop-color="#446B22"/>
<stop offset="1" stop-color="#417B0E" stop-opacity="0"/>
</linearGradient>
<linearGradient id="paint4_linear_779_4886" x1="159.31" y1="975.14" x2="174.868" y2="593.196" gradientUnits="userSpaceOnUse">
<stop stop-color="#7F4285"/>
<stop offset="1" stop-color="#8B5091" stop-opacity="0.75"/>
</linearGradient>
<linearGradient id="paint5_linear_779_4886" x1="432.674" y1="152.808" x2="440.714" y2="534.983" gradientUnits="userSpaceOnUse">
<stop stop-color="#903898"/>
<stop offset="1" stop-color="#723678" stop-opacity="0.75"/>
</linearGradient>
<linearGradient id="paint6_linear_779_4886" x1="17.4371" y1="744.49" x2="234.084" y2="576.332" gradientUnits="userSpaceOnUse">
<stop stop-color="#7C3A82"/>
<stop offset="1" stop-color="#853A8B" stop-opacity="0.61"/>
</linearGradient>
<linearGradient id="paint7_linear_779_4886" x1="503.799" y1="530.355" x2="503.799" y2="619.246" gradientUnits="userSpaceOnUse">
<stop stop-color="#395720"/>
<stop offset="1" stop-color="#558929" stop-opacity="0.22"/>
</linearGradient>
<linearGradient id="paint8_linear_779_4886" x1="475.776" y1="588.869" x2="369.936" y2="519.11" gradientUnits="userSpaceOnUse">
<stop stop-color="#538727"/>
<stop offset="1" stop-color="#538727" stop-opacity="0"/>
</linearGradient>
</defs>
</svg>
